# xmcd
#
# Track frame offsets:
#	150
#	5620
#	14969
#	27991
#	39948
#	53289
#	68139
#	78623
#	88924
#	98830
#	113988
#	123489
#	136064
#	145967
#	157611
#	162528
#	166657
#	171081
#	175382
#
# Disc length: 2399 seconds
# Revision: 0
# Processed by: cddbd v1.5.2PL0 Copyright (c) Steve Scherf et al.
# Submitted via: dBpowerAMP V12.0
#
DISCID=f4095d13
DTITLE=Rodney Dillard and the Dillard Band - I Wish Life was like Mayberry (Bonus Tracks) [Rural Rhythm]
DYEAR=2010
DGENRE=Bluegrass
TTITLE0=Mayberry Moment
TTITLE1=The Darlin' Boys
TTITLE2=There Goes the Neighborhood
TTITLE3=There Is a Time
TTITLE4=Wciker Rocking Chair
TTITLE5=Dooley
TTITLE6=Doug's Tune (Instrumental)
TTITLE7=Salty Dog
TTITLE8=Ebo Walker
TTITLE9=The Mayberry Hat
TTITLE10=Banjo In the Hollow (Instrumental)
TTITLE11=Leaning on the Everlasting Arms
TTITLE12=The Andy Griffith Show Song
TTITLE13=Wet Shoes in the Sunset Suite
TTITLE14=Leaky Boat
TTITLE15=G-Man Barney
TTITLE16=Pictures
TTITLE17=Goober and Roy
TTITLE18=Parenting
EXTD=
EXTT0=
EXTT1=
EXTT2=
EXTT3=
EXTT4=
EXTT5=
EXTT6=
EXTT7=
EXTT8=
EXTT9=
EXTT10=
EXTT11=
EXTT12=
EXTT13=
EXTT14=
EXTT15=
EXTT16=
EXTT17=
EXTT18=
PLAYORDER=
